<svg xmlns="http://www.w3.org/2000/svg" width="84" height="87" viewBox="0 0 84 87">
  <g id="logo_geeks-01" data-name="logo geeks-01" transform="translate(-270.2 -235.04)">
    <path id="Path_172" data-name="Path 172" d="M579.555,271.172c0,15.123-11.873,28-27,28s-27-12.876-27-28h5a22,22,0,0,0,44,0,20.947,20.947,0,0,0-12-19,22.962,22.962,0,0,0-6-2l4-5,11-10h7l-12,13a25.377,25.377,0,0,1,13,22C579.56,270.405,579.555,270.935,579.555,271.172Z" transform="translate(-240.355 -0.132)" fill="#51050f"/>
    <path id="Path_173" data-name="Path 173" d="M776.547,621.827a13.674,13.674,0,0,0-17,9c-.791,2.572-1.711,5.405-1,8,1.64,5.925,7.552,10,14,10a13.983,13.983,0,0,0,14-14A13.185,13.185,0,0,0,776.547,621.827Zm-4,22a9.018,9.018,0,0,1-9-9c0-.281-.024-.727,0-1a8.774,8.774,0,0,1,8-8c.273-.023.719,0,1,0a9,9,0,0,1,0,18Z" transform="translate(-460.347 -363.787)" fill="#51050f"/>
    <path id="Path_174" data-name="Path 174" d="M602.8,235.04h0l-5,5h-25v-5Z" transform="translate(-285.596 0)" fill="#51050f"/>
    <g id="typ" transform="translate(270.2 298.646)">
      <path id="Path_175" data-name="Path 175" d="M689.211,1486.357c.5.445,1.674,0,3,0,1.432,0,2.984.006,4-1,.125-.136-.387-.536,0-1l3,1c-.736,1.016-.671,1.671-1,2-1.615,1.615-3.717,2-6,2s-4.385-.385-6-2-2-3.717-2-6,.384-4.385,2-6,3.729-2,6-2a7.818,7.818,0,0,1,5,2c.242.2.768-.233,1,0,.1.1.545.486,1,1l-2,2Zm5-10c-.339-.261-.82,0-2,0a6.328,6.328,0,0,0-4,2c-1.01,1.011-1,1.567-1,3,0,1.171-.261,1.652,0,2Z" transform="translate(-660.211 -1465.963)" fill="#51050f"/>
      <path id="Path_176" data-name="Path 176" d="M1009.541,1486.357c.5.445.674,0,2,0,1.431,0,2.984.006,4-1a13.34,13.34,0,0,0,1-1l3,1a12.913,12.913,0,0,1-2,2c-1.616,1.615-3.717,2-6,2s-4.385-.385-6-2-2-3.717-2-6,.385-4.385,2-6,3.727-2,6-2a7.818,7.818,0,0,1,5,2c.242.2.767-.233,1,0,.1.1.545.486,1,1l-2,2Zm5-10c-.339-.261-1.82,0-3,0-1.423,0-1.989.989-3,2s-2,1.567-2,3c0,1.171-.261,1.652,0,2Z" transform="translate(-961.541 -1465.963)" fill="#51050f"/>
      <path id="Path_177" data-name="Path 177" d="M1347.228,1402.24l-4,5,6,10h-4l-4-7h0v7h-3v-20h3v8l3-3Z" transform="translate(-1277.227 -1393.846)" fill="#51050f"/>
      <path id="Path_178" data-name="Path 178" d="M1574.456,1499.056c.338.34.521.006,1,0s.662.341,1,0,1-.52,1-1a4.509,4.509,0,0,0-1-2,3,3,0,0,0-1-1c-1.084-.59-1.545-.545-2-1-.793-.793-2-1.887-2-3s1.207-2.2,2-3,.878-1,2-1a4.144,4.144,0,0,1,3,1,4.225,4.225,0,0,1,1,2h-3c-.068-.242.068.078,0,0-.174-.174-.71,0-1,0a.965.965,0,0,0-1,1c-.005.278.8.806,1,1,.183.174.352-.416,1,0a16.006,16.006,0,0,1,3,2c.938.948,1,2.7,1,4a3.486,3.486,0,0,1-1,3c-.934.942-2.665,1-4,1a3.452,3.452,0,0,1-3-1,3.176,3.176,0,0,1-1-2l3-1C1574.543,1498.5,1574.272,1498.872,1574.456,1499.056Z" transform="translate(-1496.456 -1478.662)" fill="#51050f"/>
      <path id="Path_179" data-name="Path 179" d="M288.2,1357.784h-6v3h5v4c-1.375,1.1-2.911,1-5,1-2.428,0-4.273-.278-6-2a10.674,10.674,0,0,1-3-7c0-2.438,1.273-4.278,3-6s3.572-2,6-2c2.244,0,3.929.162,6,2l3-2c-2.747-2.506-5.933-3-9-3-3.279,0-6.688.678-9,3s-3,4.731-3,8,.688,6.688,3,9,5.72,3,9,3a10.673,10.673,0,0,0,8-3v-8Z" transform="translate(-270.2 -1345.39)" fill="#51050f"/>
    </g>
  </g>
</svg>
