<svg xmlns="http://www.w3.org/2000/svg" width="503.139" height="524.021" viewBox="0 0 503.139 524.021">
  <g id="logo_geeks-01" data-name="logo geeks-01" transform="translate(-270.2 -235.04)">
    <path id="Path_180" data-name="Path 180" d="M853.32,451.6a164.08,164.08,0,0,1-328.16,0h32.824A131.3,131.3,0,1,0,713.152,322.518l26.942-26.942,60.4-60.4h46.67l-74.906,74.868a164.043,164.043,0,0,1,81.017,137.32C853.3,448.765,853.32,450.179,853.32,451.6Z" transform="translate(-167.467 -0.092)" fill="#51050f"/>
    <path id="Path_181" data-name="Path 181" d="M864.956,624a84.015,84.015,0,1,0,61.577,80.973A84.051,84.051,0,0,0,864.956,624ZM842.513,758.729a53.757,53.757,0,0,1-53.76-53.76c0-1.681.079-3.353.223-4.99a53.8,53.8,0,0,1,48.561-48.561c1.637-.141,3.291-.22,4.976-.22a53.766,53.766,0,1,1,0,107.532Z" transform="translate(-320.747 -253.469)" fill="#51050f"/>
    <path id="Path_182" data-name="Path 182" d="M752.607,235.04l-.031.031-32.683,32.683H573.15V235.04Z" transform="translate(-198.989 0)" fill="#f78812"/>
    <g id="typ" transform="translate(270.2 616.071)">
      <path id="Path_183" data-name="Path 183" d="M716.926,1549.788q4.52,4,16.431,4a30.126,30.126,0,0,0,21.993-9.039q1.126-1.218,4.605-5.391l18.013,6.434a116.518,116.518,0,0,1-9.564,12.083,49.488,49.488,0,1,1-4.276-73.976q2.172,1.822,4.259,3.912.868.872,4.955,5.49l-9.039,9.128ZM747,1494.154q-3.047-2.347-13.648-2.347a31.013,31.013,0,0,0-30.946,31.046q0,10.521,2.347,13.647Z" transform="translate(-541.94 -1429.399)" fill="#f78812"/>
      <path id="Path_184" data-name="Path 184" d="M1036.58,1549.788q4.519,4,16.431,4a30.134,30.134,0,0,0,21.993-9.039q1.129-1.218,4.609-5.391l17.992,6.434a116.324,116.324,0,0,1-9.561,12.083,49.482,49.482,0,1,1-4.262-73.976q2.172,1.822,4.262,3.912.865.872,4.952,5.49l-9.039,9.128Zm30.078-55.634q-3.044-2.347-13.647-2.347a31.013,31.013,0,0,0-30.946,31.046q0,10.521,2.347,13.647Z" transform="translate(-751.892 -1429.399)" fill="#f78812"/>
      <path id="Path_185" data-name="Path 185" d="M1393.621,1430.345l-24.255,29.9,33.73,59.546h-21.472l-24.341-44.611-.782.957v43.637H1338.42V1396.79H1356.5v50.593l13.908-17.038Z" transform="translate(-971.846 -1379.151)" fill="#f78812"/>
      <path id="Path_186" data-name="Path 186" d="M1591.309,1559.679a10.594,10.594,0,0,0,7.649,3.13,10.758,10.758,0,0,0,10.779-10.868,10.294,10.294,0,0,0-3.13-7.549q-2.173-2.169-9.3-6.692-9.739-5.3-13.823-9.389a23.325,23.325,0,0,1-7.127-17.124,24.411,24.411,0,0,1,24.341-24.426,22.6,22.6,0,0,1,16.777,6.781,21.594,21.594,0,0,1,6.084,10.689l-17.474,5.044a8.108,8.108,0,0,0-1.215-2.869,5.639,5.639,0,0,0-4.173-1.565,6.373,6.373,0,0,0-6.345,6.345,6.033,6.033,0,0,0,1.826,4.434,60.818,60.818,0,0,0,7.474,5.3q10.779,5.916,15.648,10.779a28.764,28.764,0,1,1-40.682,40.675,28.169,28.169,0,0,1-7.649-14.516l17.906-3.826Q1589.659,1558.028,1591.309,1559.679Z" transform="translate(-1124.594 -1438.247)" fill="#f78812"/>
      <path id="Path_187" data-name="Path 187" d="M379.981,1417.519H343.167v17.989h29.169v24.021q-12.354,9.911-31.121,9.911a52.9,52.9,0,0,1,0-105.79q20.168,0,38.777,16.513l13.473-12.258q-24.687-22.515-52.243-22.515-29.467,0-50.246,20.864T270.2,1416.49q0,29.471,20.775,50.242t50.246,20.778q27.642,0,49.113-20.514v-49.463H379.981Z" transform="translate(-270.2 -1345.39)" fill="#f78812"/>
    </g>
  </g>
</svg>
