<svg xmlns="http://www.w3.org/2000/svg" width="32.695" height="32.694" viewBox="0 0 32.695 32.694">
  <path id="noun-camera-4325388" d="M156.748,60.7h-19.58a6.557,6.557,0,0,0-6.557,6.557v19.58a6.557,6.557,0,0,0,6.557,6.557h19.58a6.557,6.557,0,0,0,6.557-6.557V67.256a6.557,6.557,0,0,0-6.557-6.557Zm3.934,26.137a3.934,3.934,0,0,1-3.934,3.934h-19.58a3.934,3.934,0,0,1-3.934-3.934V67.256a3.934,3.934,0,0,1,3.934-3.934h19.58a3.934,3.934,0,0,1,3.934,3.934ZM146.965,70.351a6.7,6.7,0,1,0,4.73,1.968,6.7,6.7,0,0,0-4.73-1.968Zm0,10.767h0a1.682,1.682,0,1,0,0-.026ZM158.2,66.823h0a1.312,1.312,0,0,1-1.311,1.311h-1.311a1.311,1.311,0,1,1,0-2.623h1.311a1.312,1.312,0,0,1,1.311,1.311Z" transform="translate(-130.611 -60.699)" fill="#f78812" opacity="0.8"/>
</svg>
