<svg xmlns="http://www.w3.org/2000/svg" width="46.852" height="46.85" viewBox="0 0 46.852 46.85">
  <g id="noun-designer-5081634" transform="translate(-99.164 -29.178)">
    <path id="Path_160" data-name="Path 160" d="M219.721,304.187A3.81,3.81,0,0,0,223.482,301l1.789-10.728a3.815,3.815,0,0,0-3.763-4.441h-21a3.814,3.814,0,0,0-3.763,4.443S198.53,301,198.53,301a3.81,3.81,0,0,0,3.761,3.186Zm0-3.269H202.292a.543.543,0,0,1-.536-.453l-1.789-10.73a.544.544,0,0,1,.538-.634h21a.544.544,0,0,1,.538.634l-1.789,10.73a.543.543,0,0,1-.536.453Z" transform="translate(-88.416 -232.685)" fill="#fafafa" fill-rule="evenodd"/>
    <path id="Path_161" data-name="Path 161" d="M221.064,499.1h21.121a1.634,1.634,0,1,0,0-3.269H221.064a1.634,1.634,0,1,0,0,3.269Z" transform="translate(-109.034 -423.071)" fill="#fafafa" fill-rule="evenodd"/>
    <path id="Path_162" data-name="Path 162" d="M249.521,52.058a10.352,10.352,0,0,0,10.351-10.351V39.529a10.351,10.351,0,1,0-20.7,0v2.179A10.352,10.352,0,0,0,249.521,52.058Zm0-3.269a7.082,7.082,0,0,1-7.082-7.082V39.528a7.082,7.082,0,1,1,14.164,0v2.179A7.082,7.082,0,0,1,249.521,48.79Z" transform="translate(-126.931 0)" fill="#fafafa" fill-rule="evenodd"/>
    <path id="Path_163" data-name="Path 163" d="M497.32,325.508h2.445a5.739,5.739,0,0,0,4.435-9.383s-3.245-6.095-3.245-6.095a1.635,1.635,0,0,0-2.885,1.538l3.33,6.252a1.712,1.712,0,0,0,.218.314,2.47,2.47,0,0,1-1.853,4.106H497.32a1.634,1.634,0,0,0,0,3.269Z" transform="translate(-359.49 -253.838)" fill="#fafafa" fill-rule="evenodd"/>
    <path id="Path_164" data-name="Path 164" d="M107.35,322.239H104.9a2.47,2.47,0,0,1-1.853-4.106,1.721,1.721,0,0,0,.218-.314l3.33-6.252a1.635,1.635,0,0,0-2.885-1.538l-3.247,6.1a5.74,5.74,0,0,0,4.437,9.381h2.445a1.634,1.634,0,1,0,0-3.269Z" transform="translate(0 -253.838)" fill="#fafafa" fill-rule="evenodd"/>
  </g>
</svg>
