<svg xmlns="http://www.w3.org/2000/svg" width="33.449" height="34.915" viewBox="0 0 33.449 34.915">
  <g id="noun-email-5286443" opacity="0.8">
    <path id="Path_43" data-name="Path 43" d="M278.709,133.155a7.79,7.79,0,0,1-3.322.61,5.514,5.514,0,0,1-5.672-5.674,6.686,6.686,0,0,1,6.786-6.821,5.188,5.188,0,0,1,5.511,5.206c0,2.585-1.454,4.273-3.5,4.273a1.464,1.464,0,0,1-1.616-1.311h-.054a2.541,2.541,0,0,1-2.208,1.311c-1.2,0-2.046-.9-2.046-2.389a4.03,4.03,0,0,1,4.182-4.129,5.179,5.179,0,0,1,2.208.468l-.485,3.357c-.143.9-.054,1.328.413,1.347.7.035,1.633-.844,1.633-2.908a3.872,3.872,0,0,0-4.236-4,5.1,5.1,0,0,0-5.063,5.4,4.266,4.266,0,0,0,4.577,4.631,6.363,6.363,0,0,0,2.568-.52ZM276.86,125.9a1.552,1.552,0,0,0-.413-.054,2.047,2.047,0,0,0-1.777,2.243c0,.63.251.988.736.988.52,0,1.1-.628,1.238-1.633Z" transform="translate(-259.139 -115.969)" fill="#f78812"/>
    <path id="Path_44" data-name="Path 44" d="M209.274,54.183h17.594v11.8l2.144-1.977V53.111a1.073,1.073,0,0,0-1.072-1.072H208.2a1.073,1.073,0,0,0-1.072,1.072V64.006l2.144,1.977Z" transform="translate(-201.346 -52.039)" fill="#f78812"/>
    <path id="Path_45" data-name="Path 45" d="M164.519,168.622l-3.535-2.555v3.174l.495.357-13.151,12.116L135.178,169.6l.494-.357v-3.174l-3.535,2.555a1.287,1.287,0,0,0-.533,1.042v19.584a3.005,3.005,0,0,0,3,3H162.05a3.005,3.005,0,0,0,3-3V169.664a1.283,1.283,0,0,0-.532-1.042Zm-30.344,19.7V171.594l9.078,8.362Zm1.693,1.357,8.968-8.262,2.765,2.546a1.075,1.075,0,0,0,1.454,0l2.764-2.546,8.969,8.262Zm26.61-1.357-9.077-8.364,9.077-8.362Z" transform="translate(-131.603 -157.335)" fill="#f78812"/>
  </g>
</svg>
