<svg xmlns="http://www.w3.org/2000/svg" width="35.934" height="31.508" viewBox="0 0 35.934 31.508">
  <g id="noun-telegram-4366960" opacity="0.8">
    <path id="Path_46" data-name="Path 46" d="M71.168,89.948l34.516-10.966a.686.686,0,0,1,.87.834l-6.039,22.094a.686.686,0,0,1-.9.46L87.415,97.758a.686.686,0,0,1-.218-1.15l9.566-8.667A.686.686,0,0,0,96,86.816L79.989,94.6a.684.684,0,0,1-.559.018l-8.314-3.385a.686.686,0,0,1,.051-1.289Zm19.187,1.868a.329.329,0,0,0-.379-.534l-7.631,4.167a1.688,1.688,0,0,0-.777,1.966l2.357,7.936a.556.556,0,0,0,.923.237l4.7-4.453a.38.38,0,0,0-.118-.62l-4.882-2.433a.43.43,0,0,1-.1-.7l5.905-5.568Z" transform="translate(-70.645 -78.949)" fill="#f78812"/>
    <g id="Group_64" data-name="Group 64" transform="translate(0.001 31.452)">
      <path id="Path_47" data-name="Path 47" d="M.034-.308H.027a.013.013,0,0,1-.008,0,.011.011,0,0,1,0-.008.011.011,0,0,1,0-.008.011.011,0,0,1,.008,0H.034v0H.027l0,0a.011.011,0,0,0,0,.005.01.01,0,0,0,0,.005l0,0h0l0,0Z" transform="translate(-0.016 0.328)" fill="#f78812"/>
    </g>
    <g id="Group_65" data-name="Group 65" transform="translate(0.023 31.457)">
      <path id="Path_48" data-name="Path 48" d="M.042-.245h0a0,0,0,0,0,0,0,0,0,0,0,0,0,0v.007H.031V-.249H.036v0l0,0h0Z" transform="translate(-0.031 0.25)" fill="#f78812"/>
    </g>
    <g id="Group_66" data-name="Group 66" transform="translate(0.035 31.457)">
      <path id="Path_49" data-name="Path 49" d="M.032-.242v0H.021s0,0,0,0H.028l0,0v0H.025l-.007,0a.006.006,0,0,1,0-.005.008.008,0,0,1,0-.006.009.009,0,0,1,.006,0,.007.007,0,0,1,.006,0,.008.008,0,0,1,0,.005Zm-.005,0s0,0,0,0h0s0,0,0,0Z" transform="translate(-0.016 0.25)" fill="#f78812"/>
    </g>
    <g id="Group_67" data-name="Group 67" transform="translate(0.055 31.457)">
      <path id="Path_50" data-name="Path 50" d="M.024-.241h0v0H.026v0h0Zm.007,0v.009h0v0l0,0H.017s0,0,0,0a0,0,0,0,1,0,0h0v0H.024a.006.006,0,0,1,.005,0,.008.008,0,0,1,0,.005Z" transform="translate(-0.016 0.25)" fill="#f78812"/>
    </g>
    <g id="Group_68" data-name="Group 68" transform="translate(0.073 31.454)">
      <path id="Path_51" data-name="Path 51" d="M.008-.3v0h0v0h0v.009h0v0H0a.007.007,0,0,1,0,0V-.29H0v0H0v0Z" transform="translate(0 0.297)" fill="#f78812"/>
    </g>
    <g id="Group_69" data-name="Group 69" transform="translate(0.087 31.457)">
      <path id="Path_52" data-name="Path 52" d="M.032-.242v0H.021s0,0,0,0H.028l0,0v0H.025l-.007,0a.006.006,0,0,1,0-.005.008.008,0,0,1,0-.006.009.009,0,0,1,.006,0,.007.007,0,0,1,.006,0,.008.008,0,0,1,0,.005Zm-.005,0s0,0,0,0h0s0,0,0,0Z" transform="translate(-0.016 0.25)" fill="#f78812"/>
    </g>
    <g id="Group_70" data-name="Group 70" transform="translate(0.106 31.452)">
      <path id="Path_53" data-name="Path 53" d="M.027-.32V-.328H.032v.021H.027v0l0,0h0a.006.006,0,0,1-.005,0,.006.006,0,0,1,0-.005.008.008,0,0,1,0-.006.006.006,0,0,1,.005,0h0l0,0Zm0,.01h0a0,0,0,0,0,0,0,.005.005,0,0,0,0,0,0,0,0,0,0,0,0l0,0a0,0,0,0,0,0,0s0,0,0,0Z" transform="translate(-0.016 0.328)" fill="#f78812"/>
    </g>
    <g id="Group_71" data-name="Group 71" transform="translate(0.137 31.452)">
      <path id="Path_54" data-name="Path 54" d="M.039-.31h0a0,0,0,0,0,0,0,.005.005,0,0,0,0,0,0,0,0,0,0,0,0l0,0a0,0,0,0,0,0,0,.006.006,0,0,0,0,0Zm0-.01,0,0h0a.006.006,0,0,1,.005,0,.009.009,0,0,1,0,.006.007.007,0,0,1,0,.005l-.005,0h0l0,0v0H.031V-.328H.036Z" transform="translate(-0.031 0.328)" fill="#f78812"/>
    </g>
    <g id="Group_72" data-name="Group 72" transform="translate(0.155 31.458)">
      <path id="Path_55" data-name="Path 55" d="M0-.234H.005l0,.01,0-.01H.018L.011-.218l0,0H0v0h0Z" transform="translate(0 0.234)" fill="#f78812"/>
    </g>
    <g id="Group_73" data-name="Group 73" transform="translate(0.185 31.457)">
      <path id="Path_56" data-name="Path 56" d="M.036-.236v.008H.031V-.249H.036v0l0,0h0a.006.006,0,0,1,.005,0,.009.009,0,0,1,0,.006.007.007,0,0,1,0,.005l-.005,0h0l0,0Zm0-.01,0,0a0,0,0,0,0,0,0,.006.006,0,0,0,0,0h0a0,0,0,0,0,0,0,.005.005,0,0,0,0,0A0,0,0,0,0,.039-.246Z" transform="translate(-0.031 0.25)" fill="#f78812"/>
    </g>
    <g id="Group_74" data-name="Group 74" transform="translate(0.204 31.457)">
      <path id="Path_57" data-name="Path 57" d="M.024-.246h0a.006.006,0,0,0,0,0s0,0,0,0H.027a0,0,0,0,0,0,0,.007.007,0,0,0,0,0Zm0,0a.007.007,0,0,1,.006,0,.007.007,0,0,1,0,.006.006.006,0,0,1,0,.005.008.008,0,0,1-.006,0l-.006,0a.006.006,0,0,1,0-.005.008.008,0,0,1,0-.006A.009.009,0,0,1,.024-.25Z" transform="translate(-0.016 0.25)" fill="#f78812"/>
    </g>
    <g id="Group_75" data-name="Group 75" transform="translate(0.225 31.457)">
      <path id="Path_58" data-name="Path 58" d="M.036-.236v.008H.031V-.249H.036v0l0,0h0a.006.006,0,0,1,.005,0,.009.009,0,0,1,0,.006.007.007,0,0,1,0,.005l-.005,0h0l0,0Zm0-.01,0,0a0,0,0,0,0,0,0,.006.006,0,0,0,0,0h0a0,0,0,0,0,0,0,.005.005,0,0,0,0,0A0,0,0,0,0,.039-.246Z" transform="translate(-0.031 0.25)" fill="#f78812"/>
    </g>
    <g id="Group_76" data-name="Group 76" transform="translate(0.244 31.457)">
      <path id="Path_59" data-name="Path 59" d="M.03-.249v0H.025l0,0a0,0,0,0,0,0,0,.006.006,0,0,0,0,0H.03v0H.025l-.007,0a.006.006,0,0,1,0-.005.008.008,0,0,1,0-.006.01.01,0,0,1,.007,0H.03Z" transform="translate(-0.016 0.25)" fill="#f78812"/>
    </g>
    <g id="Group_77" data-name="Group 77" transform="translate(0.26 31.457)">
      <path id="Path_60" data-name="Path 60" d="M.024-.246h0a.006.006,0,0,0,0,0s0,0,0,0H.027a0,0,0,0,0,0,0,.007.007,0,0,0,0,0Zm0,0a.007.007,0,0,1,.006,0,.007.007,0,0,1,0,.006.006.006,0,0,1,0,.005.008.008,0,0,1-.006,0l-.006,0a.006.006,0,0,1,0-.005.008.008,0,0,1,0-.006A.009.009,0,0,1,.024-.25Z" transform="translate(-0.016 0.25)" fill="#f78812"/>
    </g>
    <g id="Group_78" data-name="Group 78" transform="translate(0.281 31.457)">
      <path id="Path_61" data-name="Path 61" d="M.042-.245h0a0,0,0,0,0,0,0,0,0,0,0,0,0,0v.007H.031V-.249H.036v0l0,0h0Z" transform="translate(-0.031 0.25)" fill="#f78812"/>
    </g>
    <g id="Group_79" data-name="Group 79" transform="translate(0.295 31.457)">
      <path id="Path_62" data-name="Path 62" d="M.048-.243v.009H.041V-.245h0l0,0a0,0,0,0,0,0,0v.007H.031V-.249H.036v0l0,0h0a0,0,0,0,1,0,0,.008.008,0,0,1,0,.005Z" transform="translate(-0.031 0.25)" fill="#f78812"/>
    </g>
    <g id="Group_80" data-name="Group 80" transform="translate(0.314 31.457)">
      <path id="Path_63" data-name="Path 63" d="M.024-.241h0v0H.026v0h0Zm.007,0v.009h0v0l0,0H.017s0,0,0,0a0,0,0,0,1,0,0h0v0H.024a.006.006,0,0,1,.005,0,.008.008,0,0,1,0,.005Z" transform="translate(-0.016 0.25)" fill="#f78812"/>
    </g>
    <g id="Group_81" data-name="Group 81" transform="translate(0.334 31.457)">
      <path id="Path_64" data-name="Path 64" d="M.042-.245h0a0,0,0,0,0,0,0,0,0,0,0,0,0,0v.007H.031V-.249H.036v0l0,0h0Z" transform="translate(-0.031 0.25)" fill="#f78812"/>
    </g>
    <g id="Group_82" data-name="Group 82" transform="translate(0.345 31.454)">
      <path id="Path_65" data-name="Path 65" d="M.008-.3v0h0v0h0v.009h0v0H0a.007.007,0,0,1,0,0V-.29H0v0H0v0Z" transform="translate(0 0.297)" fill="#f78812"/>
    </g>
    <g id="Group_83" data-name="Group 83" transform="translate(0.36 31.457)">
      <path id="Path_66" data-name="Path 66" d="M.029-.249v0H.021v0H.028a0,0,0,0,1,0,0,0,0,0,0,1,0,0H.017v0h0a.007.007,0,0,1,0,0,0,0,0,0,1,0,0l.005,0H.029Z" transform="translate(-0.016 0.25)" fill="#f78812"/>
    </g>
    <g id="Group_84" data-name="Group 84" transform="translate(0 31.48)">
      <path id="Path_67" data-name="Path 67" d="M.012-.328v0h0v0h0v.012H0V-.319H0v0H0a.006.006,0,0,1,0,0H.009Z" transform="translate(0 0.328)" fill="#f78812"/>
    </g>
    <g id="Group_85" data-name="Group 85" transform="translate(0.014 31.486)">
      <path id="Path_68" data-name="Path 68" d="M.042-.245h0a0,0,0,0,0,0,0,0,0,0,0,0,0,0v.007H.031V-.249H.036v0l0,0h0Z" transform="translate(-0.031 0.25)" fill="#f78812"/>
    </g>
    <g id="Group_86" data-name="Group 86" transform="translate(0.027 31.486)">
      <path id="Path_69" data-name="Path 69" d="M.024-.246h0a.006.006,0,0,0,0,0s0,0,0,0H.027a0,0,0,0,0,0,0,.007.007,0,0,0,0,0Zm0,0a.007.007,0,0,1,.006,0,.007.007,0,0,1,0,.006.006.006,0,0,1,0,.005.008.008,0,0,1-.006,0l-.006,0a.006.006,0,0,1,0-.005.008.008,0,0,1,0-.006A.009.009,0,0,1,.024-.25Z" transform="translate(-0.016 0.25)" fill="#f78812"/>
    </g>
    <g id="Group_87" data-name="Group 87" transform="translate(0.047 31.486)">
      <path id="Path_70" data-name="Path 70" d="M.046-.246l0,0h0a0,0,0,0,1,0,0,.008.008,0,0,1,0,.005v.009H.052V-.242h0v0h0l0,0a0,0,0,0,0,0,0v.007H.041V-.242a.005.005,0,0,0,0,0h0l0,0a0,0,0,0,0,0,0v.007H.031V-.249H.036v0l0,0H.043A0,0,0,0,1,.046-.246Z" transform="translate(-0.031 0.25)" fill="#f78812"/>
    </g>
    <g id="Group_88" data-name="Group 88" transform="translate(0.084 31.482)">
      <path id="Path_71" data-name="Path 71" d="M.008-.3v0h0v0h0v.009h0v0H0a.007.007,0,0,1,0,0V-.29H0v0H0v0Z" transform="translate(0 0.297)" fill="#f78812"/>
    </g>
    <g id="Group_89" data-name="Group 89" transform="translate(0.1 31.48)">
      <path id="Path_72" data-name="Path 72" d="M.048-.316v.009H.041V-.318h0l0,0a0,0,0,0,0,0,0v.007H.031V-.328H.036V-.32l0,0h0a0,0,0,0,1,0,0A.008.008,0,0,1,.048-.316Z" transform="translate(-0.031 0.328)" fill="#f78812"/>
    </g>
    <g id="Group_90" data-name="Group 90" transform="translate(0.119 31.486)">
      <path id="Path_73" data-name="Path 73" d="M.032-.242v0H.021s0,0,0,0H.028l0,0v0H.025l-.007,0a.006.006,0,0,1,0-.005.008.008,0,0,1,0-.006.009.009,0,0,1,.006,0,.007.007,0,0,1,.006,0,.008.008,0,0,1,0,.005Zm-.005,0s0,0,0,0h0s0,0,0,0Z" transform="translate(-0.016 0.25)" fill="#f78812"/>
    </g>
    <g id="Group_91" data-name="Group 91" transform="translate(0.15 31.481)">
      <path id="Path_74" data-name="Path 74" d="M.047-.312H.052L.06-.3V-.312H.065v.02H.059L.051-.306v.014h0Z" transform="translate(-0.047 0.313)" fill="#f78812"/>
    </g>
    <g id="Group_92" data-name="Group 92" transform="translate(0.171 31.486)">
      <path id="Path_75" data-name="Path 75" d="M.024-.246h0a.006.006,0,0,0,0,0s0,0,0,0H.027a0,0,0,0,0,0,0,.007.007,0,0,0,0,0Zm0,0a.007.007,0,0,1,.006,0,.007.007,0,0,1,0,.006.006.006,0,0,1,0,.005.008.008,0,0,1-.006,0l-.006,0a.006.006,0,0,1,0-.005.008.008,0,0,1,0-.006A.009.009,0,0,1,.024-.25Z" transform="translate(-0.016 0.25)" fill="#f78812"/>
    </g>
    <g id="Group_93" data-name="Group 93" transform="translate(0.192 31.487)">
      <path id="Path_76" data-name="Path 76" d="M.031-.225V-.234H.036v.009h0a.011.011,0,0,0,0,0V-.234H.047v.015H.041v0l0,0H.032a.01.01,0,0,1,0-.005Z" transform="translate(-0.031 0.234)" fill="#f78812"/>
    </g>
    <g id="Group_94" data-name="Group 94" transform="translate(0.212 31.486)">
      <path id="Path_77" data-name="Path 77" d="M.048-.243v.009H.041V-.245h0l0,0a0,0,0,0,0,0,0v.007H.031V-.249H.036v0l0,0h0a0,0,0,0,1,0,0,.008.008,0,0,1,0,.005Z" transform="translate(-0.031 0.25)" fill="#f78812"/>
    </g>
    <g id="Group_95" data-name="Group 95" transform="translate(0.242 31.481)">
      <path id="Path_78" data-name="Path 78" d="M.047-.312H.055l.006,0a.006.006,0,0,1,0,.005.007.007,0,0,1,0,.005H.052v.007H.047Zm.005,0V-.3H.057v0s0,0,0,0h0Z" transform="translate(-0.047 0.313)" fill="#f78812"/>
    </g>
    <g id="Group_96" data-name="Group 96" transform="translate(0.262 31.486)">
      <path id="Path_79" data-name="Path 79" d="M.042-.245h0a0,0,0,0,0,0,0,0,0,0,0,0,0,0v.007H.031V-.249H.036v0l0,0h0Z" transform="translate(-0.031 0.25)" fill="#f78812"/>
    </g>
    <g id="Group_97" data-name="Group 97" transform="translate(0.275 31.486)">
      <path id="Path_80" data-name="Path 80" d="M.024-.246h0a.006.006,0,0,0,0,0s0,0,0,0H.027a0,0,0,0,0,0,0,.007.007,0,0,0,0,0Zm0,0a.007.007,0,0,1,.006,0,.007.007,0,0,1,0,.006.006.006,0,0,1,0,.005.008.008,0,0,1-.006,0l-.006,0a.006.006,0,0,1,0-.005.008.008,0,0,1,0-.006A.009.009,0,0,1,.024-.25Z" transform="translate(-0.016 0.25)" fill="#f78812"/>
    </g>
    <g id="Group_98" data-name="Group 98" transform="translate(0.292 31.48)">
      <path id="Path_81" data-name="Path 81" d="M-.013-.322h.005v.015a0,0,0,0,1,0,0,0,0,0,0,1,0,0h0v0h0s0,0,0,0Zm0-.006h.005v0H-.013Z" transform="translate(0.016 0.328)" fill="#f78812"/>
    </g>
    <g id="Group_99" data-name="Group 99" transform="translate(0.304 31.486)">
      <path id="Path_82" data-name="Path 82" d="M.032-.242v0H.021s0,0,0,0H.028l0,0v0H.025l-.007,0a.006.006,0,0,1,0-.005.008.008,0,0,1,0-.006.009.009,0,0,1,.006,0,.007.007,0,0,1,.006,0,.008.008,0,0,1,0,.005Zm-.005,0s0,0,0,0h0s0,0,0,0Z" transform="translate(-0.016 0.25)" fill="#f78812"/>
    </g>
    <g id="Group_100" data-name="Group 100" transform="translate(0.323 31.486)">
      <path id="Path_83" data-name="Path 83" d="M.03-.249v0H.025l0,0a0,0,0,0,0,0,0,.006.006,0,0,0,0,0H.03v0H.025l-.007,0a.006.006,0,0,1,0-.005.008.008,0,0,1,0-.006.01.01,0,0,1,.007,0H.03Z" transform="translate(-0.016 0.25)" fill="#f78812"/>
    </g>
    <g id="Group_101" data-name="Group 101" transform="translate(0.338 31.482)">
      <path id="Path_84" data-name="Path 84" d="M.008-.3v0h0v0h0v.009h0v0H0a.007.007,0,0,1,0,0V-.29H0v0H0v0Z" transform="translate(0 0.297)" fill="#f78812"/>
    </g>
  </g>
</svg>
